<svg xmlns="http://www.w3.org/2000/svg" width="28" height="28" viewBox="0 0 28 28"><g><g><g><path fill="#007397" d="M13.848 27.698C6.212 27.698 0 21.552 0 13.998 0 6.447 6.212.3 13.848.3c7.637 0 13.849 6.146 13.849 13.699s-6.212 13.699-13.85 13.699m0-26.194C6.884 1.504 1.218 7.11 1.218 14c0 6.89 5.666 12.495 12.63 12.495 6.966 0 12.632-5.605 12.632-12.495 0-6.89-5.666-12.495-12.631-12.495"/></g><g><path fill="#007397" d="M13.847 27.698c-4.559 0-8.267-6.146-8.267-13.7C5.58 6.447 9.288.3 13.847.3c4.558 0 8.265 6.146 8.265 13.699s-3.707 13.699-8.265 13.699m-.005-26.194C9.958 1.504 6.797 7.11 6.797 14c0 6.89 3.16 12.495 7.045 12.495 3.883 0 7.043-5.605 7.043-12.495 0-6.89-3.16-12.495-7.043-12.495"/></g><g><path fill="#007397" d="M13.849 27.698a.605.605 0 0 1-.609-.602V.902c0-.332.273-.602.609-.602 7.636 0 13.849 6.146 13.849 13.699s-6.213 13.699-13.85 13.699m.61-26.18V26.48C21.14 26.165 26.48 20.688 26.48 14c0-6.688-5.34-12.165-12.023-12.48"/></g><g><path fill="#007397" d="M26.224 19.218H1.468a.608.608 0 0 1-.57-.39A13.527 13.527 0 0 1 0 13.998c0-1.64.303-3.264.902-4.83a.608.608 0 0 1 .57-.389h24.752a.61.61 0 0 1 .57.389c.599 1.57.903 3.196.903 4.83 0 1.636-.304 3.26-.903 4.83a.61.61 0 0 1-.57.389M1.897 18.013h23.9c.452-1.31.682-2.659.682-4.014 0-1.354-.23-2.703-.684-4.015H1.9A12.237 12.237 0 0 0 1.217 14c0 1.356.228 2.705.68 4.014"/></g></g></g></svg>