<svg xmlns="http://www.w3.org/2000/svg" width="172" height="20" viewBox="0 0 172 20"><g><g><path fill="#007397" d="M159.202.782c-1.255.522-2.222 1.261-2.901 2.218-.68.957-1.02 2.075-1.02 3.354 0 1.315.336 2.367 1.006 3.156a6.1 6.1 0 0 0 2.382 1.742c.917.372 2.06.725 3.427 1.06 1.124.282 1.94.538 2.449.77.508.23.762.56.762.986 0 .671-.517 1.007-1.551 1.007-.99 0-2.22-.302-3.69-.905-1.472-.603-2.697-1.313-3.678-2.13L154 16.885c1.277.989 2.786 1.755 4.527 2.3 1.74.544 3.466.816 5.175.816 1.51 0 2.885-.227 4.122-.68 1.237-.454 2.217-1.148 2.941-2.082.725-.934 1.087-2.1 1.087-3.496 0-1.38-.345-2.481-1.033-3.307-.688-.825-1.488-1.433-2.401-1.823-.914-.39-2.072-.77-3.475-1.143-1.08-.28-1.869-.537-2.368-.768-.5-.232-.749-.551-.749-.96 0-.544.396-.816 1.187-.816.792 0 1.829.231 3.11.694 1.283.463 2.468.993 3.556 1.592L172 2.313c-1.106-.708-2.41-1.27-3.913-1.687a16.822 16.822 0 0 0-4.52-.626c-1.655 0-3.11.26-4.365.782zm-23 0c-1.255.522-2.222 1.261-2.901 2.218-.68.957-1.02 2.075-1.02 3.354 0 1.315.336 2.367 1.006 3.156a6.1 6.1 0 0 0 2.382 1.742c.917.372 2.06.725 3.427 1.06 1.124.282 1.94.538 2.449.77.508.23.762.56.762.986 0 .671-.517 1.007-1.551 1.007-.99 0-2.22-.302-3.69-.905-1.472-.603-2.697-1.313-3.678-2.13L131 16.885c1.277.989 2.786 1.755 4.527 2.3 1.74.544 3.466.816 5.175.816 1.51 0 2.885-.227 4.122-.68 1.237-.454 2.217-1.148 2.941-2.082.725-.934 1.087-2.1 1.087-3.496 0-1.38-.345-2.481-1.033-3.307-.688-.825-1.488-1.433-2.401-1.823-.914-.39-2.072-.77-3.475-1.143-1.08-.28-1.869-.537-2.368-.768-.5-.232-.749-.551-.749-.96 0-.544.396-.816 1.187-.816.792 0 1.829.231 3.11.694 1.283.463 2.468.993 3.556 1.592L149 2.313c-1.106-.708-2.41-1.27-3.913-1.687a16.822 16.822 0 0 0-4.52-.626c-1.655 0-3.11.26-4.365.782zm-9.45 4.246V0H110v20h17v-5.014h-10.437v-2.493h9.251V7.479h-9.251V5.028zM103 20V0h-5.857v10.279L89.421 0H84v20h5.897V9.791L97.593 20zm-25 0V0h-7v20zM53.202.782C51.947 1.304 50.98 2.043 50.3 3c-.68.957-1.02 2.075-1.02 3.354 0 1.315.336 2.367 1.006 3.156a6.1 6.1 0 0 0 2.382 1.742c.917.372 2.06.725 3.427 1.06 1.124.282 1.94.538 2.449.77.508.23.762.56.762.986 0 .671-.517 1.007-1.551 1.007-.99 0-2.22-.302-3.69-.905-1.472-.603-2.697-1.313-3.678-2.13L48 16.885c1.277.989 2.786 1.755 4.527 2.3 1.74.544 3.466.816 5.175.816 1.51 0 2.885-.227 4.122-.68 1.237-.454 2.217-1.148 2.941-2.082.725-.934 1.087-2.1 1.087-3.497 0-1.378-.344-2.48-1.033-3.306-.688-.825-1.488-1.433-2.401-1.823-.914-.39-2.072-.77-3.475-1.143-1.08-.28-1.869-.537-2.368-.768-.5-.232-.749-.551-.749-.96 0-.544.396-.816 1.187-.816.792 0 1.829.231 3.11.694 1.283.463 2.468.993 3.556 1.592L66 2.313c-1.106-.708-2.41-1.27-3.913-1.687A16.822 16.822 0 0 0 57.567 0c-1.655 0-3.11.26-4.365.782zM42 0h-6.55v11.374c0 .97-.268 1.746-.806 2.328-.538.581-1.22.872-2.047.872-.846 0-1.565-.3-2.158-.9-.593-.6-.89-1.366-.89-2.3V0H23v11.374c0 1.721.395 3.235 1.186 4.54.79 1.304 1.91 2.312 3.357 3.021 1.448.71 3.123 1.065 5.026 1.065 1.903 0 3.564-.355 4.984-1.065s2.517-1.717 3.289-3.022C41.614 14.61 42 13.095 42 11.373zM5 12h3.668c.697 0 1.26.13 1.689.39.429.26.643.605.643 1.035 0 .465-.212.844-.635 1.137-.424.292-.99.438-1.697.438H5zm2-6h2.714c.39 0 .7.09.935.27.234.18.351.416.351.71a.899.899 0 0 1-.351.74c-.234.187-.546.28-.935.28H7zM0 0v20h10.236c1.558 0 2.92-.227 4.083-.682 1.165-.455 2.07-1.11 2.714-1.964.645-.854.967-1.843.967-2.967 0-1.263-.35-2.354-1.048-3.273-.698-.919-1.625-1.513-2.78-1.783.994-.306 1.784-.85 2.37-1.63a4.29 4.29 0 0 0 .88-2.645c0-1.012-.31-1.9-.933-2.66-.623-.762-1.514-1.351-2.673-1.77C12.656.21 11.306 0 9.766 0z"/></g></g></svg>